<svg width="1600" height="900" viewBox="0 0 1600 900" fill="none" xmlns="http://www.w3.org/2000/svg" role="img" aria-labelledby="title desc">
  <title id="title">Login to Console command center vision</title>
  <desc id="desc">Bright command center inspired login hero showing KPI strip, live topology, side rail panels, CRM digest, alerts and secure console entry.</desc>
  <defs>
    <linearGradient id="bg" x1="0" y1="0" x2="1" y2="1">
      <stop offset="0" stop-color="#171C25"/>
      <stop offset="0.45" stop-color="#11141B"/>
      <stop offset="1" stop-color="#0A0C10"/>
    </linearGradient>
    <linearGradient id="card" x1="0" y1="0" x2="1" y2="1">
      <stop offset="0" stop-color="#262D3A"/>
      <stop offset="1" stop-color="#151A23"/>
    </linearGradient>
    <linearGradient id="paper" x1="0" y1="0" x2="0" y2="1">
      <stop offset="0" stop-color="#303848"/>
      <stop offset="1" stop-color="#1B2230"/>
    </linearGradient>
    <linearGradient id="redLine" x1="0" y1="0" x2="1" y2="0">
      <stop offset="0" stop-color="#DC143C" stop-opacity="0"/>
      <stop offset="0.5" stop-color="#DC143C" stop-opacity="1"/>
      <stop offset="1" stop-color="#DC143C" stop-opacity="0"/>
    </linearGradient>
    <filter id="shadow" x="-20%" y="-20%" width="140%" height="140%">
      <feDropShadow dx="0" dy="20" stdDeviation="22" flood-color="#000000" flood-opacity="0.42"/>
    </filter>
    <filter id="glow"><feGaussianBlur stdDeviation="10"/></filter>
    <pattern id="grid" width="34" height="34" patternUnits="userSpaceOnUse">
      <path d="M34 0H0V34" stroke="#2A3447" stroke-width="1" opacity="0.58"/>
    </pattern>
  </defs>

  <rect width="1600" height="900" fill="url(#bg)"/>
  <rect width="1600" height="900" fill="url(#grid)" opacity="0.55"/>
  <circle cx="1128" cy="420" r="460" fill="#DC143C" opacity="0.09" filter="url(#glow)"/>
  <circle cx="380" cy="190" r="300" fill="#D8DEE8" opacity="0.045" filter="url(#glow)"/>

  <!-- Login form side: visible but still leaves room for real controls -->
  <g filter="url(#shadow)">
    <rect x="86" y="138" width="430" height="624" rx="28" fill="#151A23" stroke="#2A3447" stroke-width="2"/>
    <rect x="122" y="178" width="132" height="10" rx="5" fill="#DC143C"/>
    <rect x="122" y="216" width="270" height="18" rx="9" fill="#D8DEE8" opacity="0.82"/>
    <rect x="122" y="250" width="322" height="11" rx="5.5" fill="#6E7A8C"/>
    <rect x="122" y="276" width="245" height="11" rx="5.5" fill="#6E7A8C" opacity="0.78"/>
    <rect x="122" y="342" width="322" height="56" rx="14" fill="#232B38" stroke="#3A4658"/>
    <rect x="146" y="365" width="174" height="10" rx="5" fill="#D8DEE8" opacity="0.52"/>
    <rect x="122" y="424" width="322" height="56" rx="14" fill="#232B38" stroke="#3A4658"/>
    <rect x="146" y="447" width="206" height="10" rx="5" fill="#D8DEE8" opacity="0.52"/>
    <rect x="122" y="512" width="322" height="60" rx="14" fill="#DC143C"/>
    <rect x="178" y="537" width="210" height="10" rx="5" fill="#FFFFFF" opacity="0.88"/>
    <rect x="122" y="602" width="322" height="52" rx="14" fill="#1B2230" stroke="#3A4658"/>
    <circle cx="151" cy="628" r="12" fill="#D8DEE8" opacity="0.70"/>
    <rect x="180" y="623" width="174" height="10" rx="5" fill="#D8DEE8" opacity="0.50"/>
    <rect x="122" y="704" width="182" height="8" rx="4" fill="#3D4654"/>
  </g>

  <!-- Command Center app canvas -->
  <g filter="url(#shadow)">
    <rect x="582" y="88" width="920" height="724" rx="24" fill="#0A0C10" stroke="#2A3447" stroke-width="2"/>
    <!-- top status bar -->
    <rect x="582" y="88" width="920" height="58" rx="24" fill="#141A24"/>
    <path d="M606 146H1478" stroke="#2A3447"/>
    <rect x="622" y="112" width="114" height="10" rx="5" fill="#D8DEE8"/>
    <rect x="754" y="112" width="74" height="10" rx="5" fill="#DC143C"/>
    <circle cx="1116" cy="117" r="7" fill="#D8DEE8"/>
    <rect x="1134" y="112" width="88" height="10" rx="5" fill="#6E7A8C"/>
    <circle cx="1262" cy="117" r="7" fill="#DC143C"/>
    <rect x="1280" y="112" width="54" height="10" rx="5" fill="#6E7A8C"/>
    <rect x="1370" y="106" width="92" height="22" rx="11" fill="#1B2230" stroke="#3A4658"/>

    <!-- KPI strip -->
    <g>
      <rect x="606" y="166" width="164" height="104" fill="url(#paper)" stroke="#2A3447"/>
      <rect x="788" y="166" width="164" height="104" fill="url(#paper)" stroke="#2A3447"/>
      <rect x="970" y="166" width="164" height="104" fill="url(#paper)" stroke="#2A3447"/>
      <rect x="1152" y="166" width="164" height="104" fill="url(#paper)" stroke="#2A3447"/>
      <rect x="1334" y="166" width="144" height="104" fill="url(#paper)" stroke="#2A3447"/>
      <rect x="628" y="190" width="44" height="8" rx="4" fill="#6E7A8C"/>
      <rect x="628" y="218" width="92" height="20" rx="10" fill="#D8DEE8"/>
      <rect x="810" y="190" width="70" height="8" rx="4" fill="#6E7A8C"/>
      <rect x="810" y="218" width="108" height="20" rx="10" fill="#D8DEE8"/>
      <rect x="992" y="190" width="78" height="8" rx="4" fill="#6E7A8C"/>
      <rect x="992" y="218" width="68" height="20" rx="10" fill="#D8DEE8"/>
      <rect x="1174" y="190" width="102" height="8" rx="4" fill="#6E7A8C"/>
      <rect x="1174" y="218" width="34" height="20" rx="10" fill="#DC143C"/>
      <rect x="1356" y="190" width="54" height="8" rx="4" fill="#6E7A8C"/>
      <rect x="1356" y="218" width="76" height="20" rx="10" fill="#D8DEE8"/>
    </g>

    <!-- Zone 3 topology -->
    <rect x="606" y="292" width="592" height="332" rx="18" fill="#11141B" stroke="#2A3447"/>
    <rect x="630" y="318" width="132" height="9" rx="4.5" fill="#6E7A8C"/>
    <rect x="630" y="340" width="220" height="8" rx="4" fill="#3D4654"/>
    <path d="M902 382 C836 420 813 474 852 538" stroke="#6E7A8C" stroke-width="2" opacity="0.6"/>
    <path d="M902 382 C980 412 1014 472 980 548" stroke="#6E7A8C" stroke-width="2" opacity="0.6"/>
    <path d="M902 382 C930 448 918 508 900 580" stroke="#DC143C" stroke-width="3" opacity="0.92"/>
    <circle cx="902" cy="382" r="42" fill="#202735" stroke="#D8DEE8" stroke-width="2"/>
    <circle cx="852" cy="538" r="34" fill="#202735" stroke="#6E7A8C" stroke-width="2"/>
    <circle cx="980" cy="548" r="34" fill="#202735" stroke="#6E7A8C" stroke-width="2"/>
    <circle cx="900" cy="580" r="34" fill="#261722" stroke="#DC143C" stroke-width="3"/>
    <circle cx="731" cy="512" r="28" fill="#202735" stroke="#3D4654" stroke-width="2"/>
    <circle cx="1094" cy="504" r="28" fill="#202735" stroke="#3D4654" stroke-width="2"/>
    <rect x="872" y="374" width="60" height="7" rx="3.5" fill="#D8DEE8"/>
    <rect x="830" y="532" width="44" height="6" rx="3" fill="#6E7A8C"/>
    <rect x="958" y="542" width="44" height="6" rx="3" fill="#6E7A8C"/>
    <rect x="878" y="574" width="44" height="6" rx="3" fill="#DC143C"/>

    <!-- Side rail panels: Margot, Business 360, Daily Digest, Activity -->
    <rect x="1220" y="292" width="258" height="110" rx="16" fill="url(#card)" stroke="#2A3447"/>
    <circle cx="1250" cy="326" r="14" fill="#DC143C"/>
    <rect x="1278" y="319" width="94" height="9" rx="4.5" fill="#D8DEE8"/>
    <rect x="1242" y="358" width="206" height="10" rx="5" fill="#3D4654"/>
    <rect x="1242" y="376" width="136" height="10" rx="5" fill="#3D4654"/>

    <rect x="1220" y="420" width="258" height="120" rx="16" fill="url(#card)" stroke="#2A3447"/>
    <rect x="1242" y="444" width="112" height="9" rx="4.5" fill="#6E7A8C"/>
    <path d="M1246 510 L1276 480 L1306 496 L1336 462 L1370 486 L1406 452 L1448 474" stroke="#D8DEE8" stroke-width="3" fill="none"/>
    <circle cx="1336" cy="462" r="5" fill="#DC143C"/>

    <rect x="1220" y="558" width="258" height="114" rx="16" fill="url(#card)" stroke="#2A3447"/>
    <rect x="1242" y="582" width="110" height="9" rx="4.5" fill="#6E7A8C"/>
    <rect x="1242" y="610" width="190" height="9" rx="4.5" fill="#D8DEE8" opacity="0.82"/>
    <rect x="1242" y="632" width="150" height="9" rx="4.5" fill="#3D4654"/>

    <rect x="606" y="646" width="872" height="128" rx="16" fill="#11141B" stroke="#2A3447"/>
    <rect x="630" y="672" width="134" height="8" rx="4" fill="#6E7A8C"/>
    <circle cx="646" cy="716" r="7" fill="#D8DEE8"/>
    <rect x="668" y="711" width="188" height="10" rx="5" fill="#D8DEE8" opacity="0.78"/>
    <rect x="885" y="711" width="92" height="10" rx="5" fill="#3D4654"/>
    <circle cx="646" cy="746" r="7" fill="#DC143C"/>
    <rect x="668" y="741" width="236" height="10" rx="5" fill="#D8DEE8" opacity="0.78"/>
    <rect x="932" y="741" width="130" height="10" rx="5" fill="#3D4654"/>
  </g>

  <!-- stronger red signal sweep -->
  <rect x="610" y="812" width="862" height="2" fill="url(#redLine)" opacity="0.95"/>
</svg>
